<svg width="110" height="36" viewBox="0 0 110 36" fill="none" xmlns="http://www.w3.org/2000/svg">
<path d="M0 0V36H7.96779V0H0Z" fill="#2A524C"/>
<path d="M31.8164 36L43.8443 0H35.6227L27.4519 25.3109H27.3504L19.2811 0H11.1103L22.8337 36H31.8164Z" fill="#2A524C"/>
<path d="M53.7398 22.084L58.4595 8.87395H58.561L63.1286 22.084H53.7398ZM54.501 0L40.7985 36H48.817L51.659 27.9832H65.2093L67.9498 36H76.2221L62.6718 0H54.501Z" fill="#2A524C"/>
<path d="M88.2281 17.1429L75.5913 36H84.5234L92.5927 23.5462L100.51 36H110L97.3632 17.1933L108.985 0H100.256L92.8972 11.4958L85.7921 0H76.5556L88.2281 17.1429Z" fill="#2A524C"/>
</svg>
