<svg width="51" height="54" viewBox="0 0 51 54" fill="none" xmlns="http://www.w3.org/2000/svg">
<path d="M23.8711 33.4789C23.8711 34.5719 24.7526 35.4534 25.8456 35.4534C26.9387 35.4534 27.8202 34.5719 27.8202 33.4789C27.8202 32.3858 26.9387 31.5043 25.8456 31.5043C24.7526 31.5043 23.8711 32.3858 23.8711 33.4789Z" fill="#F2C94C"/>
<path d="M26.445 30.3762C27.9082 30.6582 29.0189 31.9452 29.0189 33.4967C29.0189 35.242 27.5909 36.67 25.8456 36.67C24.1002 36.67 22.6722 35.242 22.6722 33.4967C22.6722 31.9452 23.7829 30.6582 25.2462 30.3762V17.7357L16.2197 33.5143L20.7329 43.5985H30.729L35.4538 33.5143L26.445 17.7357V30.3762Z" fill="#F2C94C"/>
<path d="M5.37656 2.909C6.02886 2.909 6.57538 2.38012 6.57538 1.71019C6.57538 1.04026 6.04649 0.511353 5.37656 0.511353C4.70663 0.511353 4.17773 1.04026 4.17773 1.71019C4.17773 2.38012 4.70663 2.909 5.37656 2.909Z" fill="#F2C94C"/>
<path d="M8.3744 40.0196C7.38713 40.0196 6.57617 40.8306 6.57617 41.8178C6.57617 42.8051 7.38713 43.616 8.3744 43.616C9.36167 43.616 10.1726 42.8051 10.1726 41.8178C10.1726 40.8306 9.36167 40.0196 8.3744 40.0196Z" fill="#F2C94C"/>
<path d="M48.464 28.049C47.1418 28.049 46.0664 29.1244 46.0664 30.4466C46.0664 31.7689 47.1418 32.8443 48.464 32.8443C49.7863 32.8443 50.8617 31.7689 50.8617 30.4466C50.8617 29.1244 49.7863 28.049 48.464 28.049Z" fill="#F2C94C"/>
<path d="M32.0333 47.4241H30.4995V44.7973H20.9265V47.4241H19.3928C18.2468 47.4241 17.3301 48.3585 17.3301 49.4868V53.4006C17.3301 53.7356 17.5945 54 17.9295 54C18.2644 54 18.5289 53.7356 18.5289 53.4006V49.4868C18.5289 49.0108 18.9168 48.6229 19.3928 48.6229H32.0157C32.4917 48.6229 32.8795 49.0108 32.8795 49.4868V53.4006C32.8795 53.7356 33.144 54 33.4789 54C33.8139 54 34.0783 53.7356 34.0783 53.4006V49.4868C34.0783 48.3409 33.144 47.4241 32.0157 47.4241H32.0333Z" fill="#F2C94C"/>
<path d="M49.593 13.0812C49.593 11.4241 48.2531 10.0842 46.5959 10.0842C45.1503 10.0842 43.9338 11.1067 43.6694 12.4818H31.1523C32.7918 11.5651 34.2375 10.3134 35.3834 8.81488C37.1816 6.43486 38.1337 3.59646 38.1337 0.599405C38.1337 0.26444 37.8692 0 37.5342 0C37.1993 0 36.9348 0.26444 36.9348 0.599405C36.9348 5.78255 33.6381 10.4721 28.8251 12.2527V10.7012C28.8251 10.3663 28.5607 10.1018 28.2257 10.1018H23.4304C23.0955 10.1018 22.831 10.3663 22.831 10.7012V12.2703C18.0181 10.4897 14.7213 5.80017 14.7213 0.617025C14.7213 0.28206 14.4569 0.0176201 14.1219 0.0176201C13.787 0.0176201 13.5225 0.28206 13.5225 0.617025C13.5225 3.61408 14.4745 6.45248 16.2728 8.8325C17.4187 10.331 18.8643 11.5827 20.5039 12.4995H7.75758C7.47551 11.142 6.27668 10.1018 4.83104 10.1018C3.17384 10.1018 1.83398 11.4417 1.83398 13.0989C1.83398 14.7561 3.17384 16.096 4.83104 16.096C6.27668 16.096 7.49314 15.0734 7.75758 13.6983H22.831V15.4966C22.831 15.8315 23.0955 16.096 23.4304 16.096H28.2257C28.5607 16.096 28.8251 15.8315 28.8251 15.4966V13.6983H43.6694C43.9515 15.0558 45.1503 16.096 46.5959 16.096C48.2531 16.096 49.593 14.7561 49.593 13.0989V13.0812Z" fill="#F2C94C"/>
<path d="M41.8883 8.30365C42.5504 8.30365 43.0871 7.76693 43.0871 7.10484C43.0871 6.44275 42.5504 5.90601 41.8883 5.90601C41.2262 5.90601 40.6895 6.44275 40.6895 7.10484C40.6895 7.76693 41.2262 8.30365 41.8883 8.30365Z" fill="#F2C94C"/>
<path d="M49.0631 1.71014C49.7154 1.71014 50.2619 2.23902 50.2619 2.90895C50.2619 3.57888 49.733 4.10776 49.0631 4.10776C48.3932 4.10776 47.8643 3.57888 47.8643 2.90895C47.8643 2.23902 48.3932 1.71014 49.0631 1.71014Z" fill="#F2C94C"/>
<path d="M39.4908 19.6749C40.1431 19.6749 40.6896 20.2037 40.6896 20.8737C40.6896 21.5436 40.1607 22.0725 39.4908 22.0725C38.8209 22.0725 38.292 21.5436 38.292 20.8737C38.292 20.2037 38.8209 19.6749 39.4908 19.6749Z" fill="#F2C94C"/>
<path d="M43.0699 42.3997C43.7222 42.3997 44.2687 42.9285 44.2687 43.5985C44.2687 44.2684 43.7398 44.7973 43.0699 44.7973C42.4 44.7973 41.8711 44.2684 41.8711 43.5985C41.8711 42.9285 42.4 42.3997 43.0699 42.3997Z" fill="#F2C94C"/>
<path d="M11.9527 48.3937C12.605 48.3937 13.1516 48.9226 13.1516 49.5926C13.1516 50.2625 12.6227 50.7914 11.9527 50.7914C11.2828 50.7914 10.7539 50.2625 10.7539 49.5926C10.7539 48.9226 11.2828 48.3937 11.9527 48.3937Z" fill="#F2C94C"/>
<path d="M1.19882 31.6279C1.85112 31.6279 2.39765 32.1567 2.39765 32.8267C2.39765 33.4966 1.86875 34.0255 1.19882 34.0255C0.528893 34.0255 0 33.4966 0 32.8267C0 32.1567 0.528893 31.6279 1.19882 31.6279Z" fill="#F2C94C"/>
<path d="M14.3502 19.6749C15.0025 19.6749 15.549 20.2037 15.549 20.8737C15.549 21.5436 15.0201 22.0725 14.3502 22.0725C13.6803 22.0725 13.1514 21.5436 13.1514 20.8737C13.1514 20.2037 13.6803 19.6749 14.3502 19.6749Z" fill="#F2C94C"/>
<path d="M6.87801 29.4393L5.18262 31.1346L6.87803 32.8301L8.57342 31.1347L6.87801 29.4393Z" fill="#F2C94C"/>
<path d="M10.2764 29.4258L8.58105 31.1212L10.2765 32.8166L11.9719 31.1212L10.2764 29.4258Z" fill="#F2C94C"/>
<path d="M6.88289 26.0409L5.1875 27.7363L6.88287 29.4317L8.57827 27.7363L6.88289 26.0409Z" fill="#F2C94C"/>
<path d="M10.2638 26.0626L8.56836 27.758L10.2637 29.4534L11.9591 27.758L10.2638 26.0626Z" fill="#F2C94C"/>
</svg>
