<svg width="24" height="24" viewBox="0 0 24 24" fill="none" xmlns="http://www.w3.org/2000/svg">
<g clip-path="url(#clip0_60_1779)">
<path d="M11.5108 23.4461L11.5108 0.553831C11.5108 0.281523 11.7308 0.0615232 12.0031 0.0615232C12.2754 0.0615233 12.4954 0.281523 12.4954 0.553831L12.4954 22.2569L15.4831 19.2692C15.6754 19.0769 15.9877 19.0769 16.18 19.2692C16.3723 19.4615 16.3723 19.7738 16.18 19.9661L12.3508 23.7954C12.2092 23.9369 11.9984 23.9784 11.8138 23.9015C11.6308 23.8246 11.5108 23.6446 11.5108 23.4461Z" fill="#F2C94C"/>
<path d="M7.67648 19.6123C7.67648 19.4861 7.72417 19.36 7.82109 19.2646C8.0134 19.0723 8.32571 19.0723 8.51802 19.2646L12.3519 23.0984C12.5442 23.2907 12.5442 23.6031 12.3519 23.7954C12.1596 23.9877 11.8472 23.9877 11.6549 23.7954L7.82109 19.9615C7.72417 19.8646 7.67648 19.7384 7.67648 19.6123Z" fill="#F2C94C"/>
</g>
<defs>
<clipPath id="clip0_60_1779">
<rect width="24" height="24" fill="white" transform="translate(24) rotate(90)"/>
</clipPath>
</defs>
</svg>
