<svg width="24" height="24" viewBox="0 0 24 24" fill="none" xmlns="http://www.w3.org/2000/svg">
<g clip-path="url(#clip0_60_1771)">
<path d="M12.4892 0.55386L12.4892 23.4462C12.4892 23.7185 12.2692 23.9385 11.9969 23.9385C11.7246 23.9385 11.5046 23.7185 11.5046 23.4462L11.5046 1.74309L8.51693 4.73078C8.32463 4.92309 8.01232 4.92309 7.82001 4.73078C7.6277 4.53848 7.6277 4.22617 7.82001 4.03386L11.6492 0.20463C11.7908 0.0630911 12.0015 0.0215529 12.1862 0.0984762C12.3692 0.175398 12.4892 0.355398 12.4892 0.55386Z" fill="#656565"/>
<path d="M16.3235 4.38771C16.3235 4.51387 16.2758 4.64002 16.1789 4.73541C15.9866 4.92772 15.6743 4.92772 15.482 4.73541L11.6481 0.90156C11.4558 0.709253 11.4558 0.396946 11.6481 0.204638C11.8404 0.0123305 12.1528 0.0123305 12.3451 0.204638L16.1789 4.03848C16.2758 4.13541 16.3235 4.26156 16.3235 4.38771Z" fill="#656565"/>
</g>
<defs>
<clipPath id="clip0_60_1771">
<rect width="24" height="24" fill="white" transform="translate(0 24) rotate(-90)"/>
</clipPath>
</defs>
</svg>
