<svg width="16" height="16" viewBox="0 0 16 16" fill="none" xmlns="http://www.w3.org/2000/svg">
<path fill-rule="evenodd" clip-rule="evenodd" d="M1.33301 8.00001C1.33301 4.31811 4.31777 1.33334 7.99967 1.33334C9.06281 1.33334 10.0696 1.58268 10.963 2.02668C11.2927 2.19054 11.4272 2.59066 11.2633 2.92038C11.0995 3.2501 10.6993 3.38456 10.3697 3.2207C9.65648 2.86628 8.85234 2.66668 7.99967 2.66668C5.05415 2.66668 2.66634 5.05449 2.66634 8.00001C2.66634 10.9455 5.05415 13.3333 7.99967 13.3333C10.9452 13.3333 13.333 10.9455 13.333 8.00001C13.333 7.79921 13.3219 7.60121 13.3004 7.40661C13.2599 7.04061 13.5239 6.71114 13.8898 6.67074C14.2557 6.63026 14.5852 6.89414 14.6257 7.26008C14.6525 7.50328 14.6663 7.75014 14.6663 8.00001C14.6663 11.6819 11.6815 14.6667 7.99967 14.6667C4.31777 14.6667 1.33301 11.6819 1.33301 8.00001ZM14.4711 2.86194C14.7314 3.12229 14.7314 3.5444 14.4711 3.80475L8.47107 9.80474C8.21074 10.0651 7.78861 10.0651 7.52827 9.80474L5.52827 7.80474C5.26792 7.54441 5.26792 7.12228 5.52827 6.86194C5.78862 6.60159 6.21073 6.60159 6.47108 6.86194L7.99967 8.39054L13.5283 2.86194C13.7886 2.60159 14.2107 2.60159 14.4711 2.86194Z" fill="#F2C94C"/>
</svg>
