<svg width="24" height="24" viewBox="0 0 24 24" fill="none" xmlns="http://www.w3.org/2000/svg">
<path d="M18.0204 5.16384C17.2691 4.41686 16.2539 3.99591 15.1945 3.99217C14.1351 3.98842 13.1169 4.40219 12.3604 5.14384L5.70036 11.6878C5.51152 11.8738 5.25671 11.9773 4.99171 11.9758C4.7267 11.9743 4.47309 11.8679 4.28636 11.6798C4.19407 11.5868 4.12109 11.4764 4.07161 11.3551C4.02213 11.2337 3.99714 11.1038 3.99807 10.9728C3.999 10.8417 4.02583 10.7122 4.07703 10.5915C4.12822 10.4709 4.20276 10.3616 4.29636 10.2698L10.9544 3.72784C12.0871 2.61594 13.6124 1.99516 15.1997 2.00003C16.787 2.0049 18.3084 2.63501 19.4344 3.75384C19.9929 4.30904 20.4362 4.96921 20.7387 5.69635C21.0412 6.4235 21.1969 7.20329 21.1969 7.99084C21.1969 8.7784 21.0412 9.55818 20.7387 10.2853C20.4362 11.0125 19.9929 11.6726 19.4344 12.2278L10.7704 20.8558C10.0337 21.5881 9.03711 21.9992 7.99836 21.9992C6.95961 21.9992 5.96306 21.5881 5.22636 20.8558C4.86251 20.494 4.57377 20.0638 4.37674 19.5899C4.17972 19.1161 4.07829 18.608 4.07829 18.0948C4.07829 17.5817 4.17972 17.0736 4.37674 16.5997C4.57377 16.1259 4.86251 15.6957 5.22636 15.3338L13.3064 7.28784C13.4941 7.10147 13.7478 6.99687 14.0124 6.99687C14.2769 6.99687 14.5307 7.10147 14.7184 7.28784C14.811 7.38018 14.8845 7.4899 14.9347 7.61071C14.9848 7.73152 15.0106 7.86104 15.0106 7.99184C15.0106 8.12265 14.9848 8.25216 14.9347 8.37297C14.8845 8.49378 14.811 8.6035 14.7184 8.69584L6.64036 16.7418C6.46203 16.9192 6.32052 17.13 6.22395 17.3622C6.12738 17.5944 6.07767 17.8434 6.07767 18.0948C6.07767 18.3463 6.12738 18.5953 6.22395 18.8275C6.32052 19.0597 6.46203 19.2705 6.64036 19.4478C7.0014 19.8079 7.49048 20.0101 8.00036 20.0101C8.51024 20.0101 8.99932 19.8079 9.36036 19.4478L18.0204 10.8198C18.3931 10.4492 18.6889 10.0086 18.8907 9.52325C19.0926 9.03792 19.1965 8.51747 19.1965 7.99184C19.1965 7.46621 19.0926 6.94576 18.8907 6.46043C18.6889 5.9751 18.3931 5.53445 18.0204 5.16384Z" fill="#F2C94C"/>
</svg>
